<?xml version="1.0" encoding="UTF-8"?>
<svg id="Laag_1" xmlns="http://www.w3.org/2000/svg" version="1.1" viewBox="0 0 1401.1 262.2">
  <!-- Generator: Adobe Illustrator 29.1.0, SVG Export Plug-In . SVG Version: 2.1.0 Build 142)  -->
  <defs>
    <style>
      .st0 {
        fill: #ede8e2;
      }

      .st1 {
        fill: red;
      }
    </style>
  </defs>
  <path class="st0" d="M70.7,66.6c-1.7-3.7-9.8-21.8-5.4-33.5H0c3,4,6.2,9.8,9.9,18,1.1,2.3,10.7,22.1,82.7,180.2h.8l24.4-60.5c-.3-.4-.5-.8-.7-1.2l-46.3-103Z"/>
  <path class="st0" d="M223.9,123.6c3,0,18.2-1.4,32.4-7.6,17.7-7.8,26.7-19.9,26.7-36,0-36.6-26.5-44.8-64.1-46.5,9.9,8.9,14.9,23.9,14.9,44.7s-3.6,36.3-11.2,45.5c.4-.1.9-.2,1.4-.2Z"/>
  <path class="st0" d="M196.7,33.1h-56.9c4.8,7.6,7.3,19.6,7.3,35.2v128.1c0,17.7-3.1,28.5-7.3,34.9h56.8v-99.4c0-.5,0-.9.2-1.3,0-.4-.2-.9-.2-1.3V33.1Z"/>
  <path class="st0" d="M263.1,143.1c-13.3-5.5-28.6-7.2-40.2-7.5,9.2,7.8,16,21.8,16,47.1s-4.4,39.1-13.8,48c14-.8,26.5-2.5,37.1-6.1,20.2-6.9,29.6-19.8,29.6-40.7s-9.4-32.8-28.6-40.8Z"/>
  <g>
    <path class="st0" d="M427.3,31.7h17.3l20.9,54.6,1.8,5.6,1.8-5.6,20.9-54.6h17.3l-32.3,82.7h-15.3l-32.3-82.7Z"/>
    <path class="st0" d="M510.7,114.4l32-82.7h17.8l32,82.7h-17.6l-6.9-18h-32.9l-6.9,18h-17.6ZM540.2,81.9h22.7l-9.8-25.9-1.6-4.6-1.5,4.6-9.8,25.9Z"/>
    <path class="st0" d="M623.3,114.4V31.7h16.1l33.9,50.1,3.4,5.6V31.7h16.2v82.7h-16.2l-34-49.9-3.2-5.5v55.4h-16.2Z"/>
    <path class="st0" d="M774.1,114.4V31.7h26.3c8.3,0,14.9,2.1,19.8,6.3,4.9,4.2,7.3,9.9,7.3,17.2s-2.4,12.3-7.2,16c3.7,1.6,6.5,4,8.6,7.2,2.1,3.2,3.2,7.1,3.2,11.5,0,7.3-2.5,13.2-7.6,17.7-5.1,4.4-11.8,6.7-20.4,6.7h-30.1ZM790.3,65.4h10.3c3.2,0,5.8-.8,7.6-2.4s2.8-3.8,2.8-6.6-.9-5.5-2.7-7.1-4.4-2.4-7.8-2.4h-10.1v18.5ZM790.3,99.2h13.9c3.5,0,6.2-.9,8.1-2.6s2.9-4.1,2.9-7.2-1-5.5-2.9-7.2-4.7-2.5-8.2-2.5h-13.9v19.4Z"/>
    <path class="st0" d="M856.6,114.4l32-82.7h17.8l32,82.7h-17.6l-6.9-18h-32.9l-6.9,18h-17.6ZM886.1,81.9h22.7l-9.8-25.9-1.6-4.6-1.5,4.6-9.8,25.9Z"/>
    <path class="st0" d="M962.6,114.4l32-82.7h17.8l32,82.7h-17.6l-6.9-18h-32.9l-6.9,18h-17.6ZM992.1,81.9h22.7l-9.8-25.9-1.6-4.6-1.5,4.6-9.8,25.9Z"/>
    <path class="st0" d="M1075.1,114.4V31.7h25.5c8.8,0,15.8,2.4,21.1,7.3,5.3,4.8,7.9,11.2,7.9,19.1s-1.3,9.6-3.8,13.5c-2.5,3.9-6.1,6.9-10.6,9l17.9,33.8h-18.6l-16-30.9h-7.3v30.9h-16.2ZM1091.3,69.1h9.3c3.8,0,6.9-.9,9.1-2.8,2.2-1.9,3.3-4.6,3.3-8.2s-1.1-6.4-3.3-8.3c-2.2-1.9-5.2-2.9-9.1-2.9h-9.3v22.2Z"/>
    <path class="st0" d="M1160.1,89.1h16.4c.2,4,1.4,7.1,3.6,9.2,2.2,2.1,5.3,3.2,9.4,3.2s6-.9,8-2.6c1.9-1.7,2.9-4,2.9-6.7s-1.1-5-3.4-6.8c-2.3-1.8-6-3.6-11.2-5.3-8-2.6-13.9-5.8-17.8-9.6s-5.9-9-5.9-15.6,2.3-13.3,7-17.8c4.7-4.6,11-6.8,19.1-6.8s14.1,2.1,18.7,6.3c4.6,4.2,7.1,10.3,7.4,18.4h-16.4c-.1-3.2-1.1-5.7-2.9-7.6s-4.2-2.7-7.1-2.7-5.2.8-6.9,2.3c-1.7,1.5-2.5,3.7-2.5,6.5s.3,2.8.8,3.9c.5,1.1,1.5,2.1,2.8,3,1.4.9,2.8,1.7,4.3,2.4,1.5.7,3.7,1.5,6.6,2.5,8.7,2.9,14.8,6.3,18.4,10.3,3.6,3.9,5.4,9,5.4,15.3s-2.6,13.9-7.8,18.4c-5.2,4.5-11.7,6.7-19.7,6.7s-16.3-2.4-21.3-7.3c-5-4.9-7.6-11.4-7.9-19.5Z"/>
    <path class="st0" d="M1249.6,114.4V31.7h47.6v15.2h-31.4v17.5h27.1v15.2h-27.1v19.7h31.4v15.2h-47.6Z"/>
    <path class="st0" d="M1331.5,114.4V31.7h16.1l33.9,50.1,3.4,5.6V31.7h16.2v82.7h-16.2l-34-49.9-3.2-5.5v55.4h-16.2Z"/>
    <path class="st0" d="M456.1,228l-19.7-54.8c-2.5-7-6.2-9.7-10-10.1v-.8h24.4v.8c-5.1,0-7,2.5-4.9,8.5l15.1,43.5,13.3-36.7c3.5-9.9,0-15.2-7-15.2v-.8h21.9v.8c-5.4.5-9.6,5.9-12.8,14.8l-18.6,50.2h-1.7Z"/>
    <path class="st0" d="M512.3,227.2h-21.9v-.8c5.4-.5,9.6-5.9,12.8-14.8l18.4-50.2h2l19.5,54.8c2.5,7,6.2,9.7,10,10.1v.8h-24.4v-.8c5.1,0,7-2.5,4.9-8.5l-4.2-12.3h-22.2l-2,5.5c-3.5,9.9,0,15.2,7,15.2v.8ZM518.6,173.9l-10.7,30h21l-10.3-30Z"/>
    <path class="st0" d="M594.1,228.6c-6.2,0-13.9-2-19.9-5.2l3.5-16.1,1.1.2c2,14.1,6.5,19.4,16.1,19.4s13.9-6.2,13.9-12.9-7.1-12.6-14.8-16.1c-9-4.1-18.8-7.8-18.8-19.5s7.2-17.8,20.4-17.8,13.6,1.9,18.8,4.8l-2.8,13.9-1-.2c-1.4-11.2-7.2-16.8-16.2-16.8s-14.2,4.8-14.2,11.2,7.3,10.8,15.4,14.5c9.8,4.6,20.8,9.2,20.8,21s-9.8,19.5-22.4,19.5Z"/>
    <path class="st0" d="M690.2,162.2l2.8,18.7h-1.2l-2.2-4.6c-4.5-9.4-8.6-12.7-18.3-12.7h-1.5v54.3c0,6.5,3.8,8.2,7.7,8.5v.8h-24.7v-.8c3.9-.4,7.7-2,7.7-8.5v-54.3h-.8c-9.7,0-15.1,4.3-19.1,12.6l-2.2,4.6h-1.2l3.3-18.7h49.8Z"/>
    <path class="st0" d="M770.6,222.8c-5,2.7-13.2,5.8-21.7,5.8-20.8,0-35.3-15.6-35.3-33.8s15.6-34.1,35.9-34.1,17.4,2.2,21.4,4.5l-2.8,15.9-1.3-.2c-2.2-12-9.3-18.7-19.2-18.7-14.5,0-23.2,12.9-23.2,30.7s10.4,34.2,25.2,34.2,12.3-4,12.3-10.4v-10.4c0-5.8-6.2-7.4-9.8-7.8v-.7h26.3v.7c-4.3.4-7.6,2-7.6,7.8v16.6Z"/>
    <path class="st0" d="M799.9,194.5c0-18.8,14.2-33.9,32.8-33.9s32.6,15.1,32.6,34.3-14.1,33.9-32.7,33.9-32.7-15.1-32.7-34.3ZM854.2,195.3c0-25-12.2-33.4-22.3-33.4s-21.2,9.1-21.2,32.2,12.2,33.2,22.1,33.2,21.4-9,21.4-32.1Z"/>
    <path class="st0" d="M935.6,227.2h-48.4v-.8c4-.4,7.9-2,7.9-7.9v-47.8c0-6-3.9-7.3-7.9-7.7v-.8h46.6l2.4,15.1h-1.3c-4.9-11-13.2-13.8-20.3-13.8h-10.3v29.4h6.6c9.8,0,13.7-1.1,15.6-10.4h1.2v22.3h-1.2c-1.9-9.1-5.7-10.3-15.6-10.3h-6.6v31.3h9c9.8,0,21.3-5,23.9-17.3h1.3l-3,18.7Z"/>
    <path class="st0" d="M960.8,226.4c3.7-.4,7.9-1.7,7.9-7.6v-47.9c0-5.9-4.2-7.4-7.9-7.8v-.8h28.6c17.8,0,31.8,11.7,31.8,31.8s-10.9,33.3-34.2,33.3h-26.2v-.8ZM978,163.6v62.3h7.2c16.4,0,25.4-15.8,25.4-31.5s-10.8-30.8-26.5-30.8h-6Z"/>
  </g>
  <rect class="st1" x="361.6" width="7" height="262.2"/>
</svg>